<svg width="1984" height="1984" viewBox="0 0 1984 1984" fill="none" xmlns="http://www.w3.org/2000/svg">
<rect class="circle-7" x="0.5" y="0.5" width="1983" height="1983" rx="991.5" fill="#6bbf4b" fill-opacity="0.02"/>
<rect class="circle-7" x="0.5" y="0.5" width="1983" height="1983" rx="991.5" stroke="#6bbf4b" stroke-opacity="0.05"/>
<rect class="circle-6" x="100.5" y="100.5" width="1783" height="1783" rx="891.5" fill="#6bbf4b" fill-opacity="0.03"/>
<rect class="circle-6" x="100.5" y="100.5" width="1783" height="1783" rx="891.5" stroke="#6bbf4b" stroke-opacity="0.08"/>
<rect class="circle-5" x="200.5" y="200.5" width="1583" height="1583" rx="791.5" fill="#6bbf4b" fill-opacity="0.05"/>
<rect class="circle-5" x="200.5" y="200.5" width="1583" height="1583" rx="791.5" stroke="#6bbf4b" stroke-opacity="0.12"/>
<rect class="circle-4" x="300.5" y="300.5" width="1383" height="1383" rx="691.5" fill="#6bbf4b" fill-opacity="0.07"/>
<rect class="circle-4" x="300.5" y="300.5" width="1383" height="1383" rx="691.5" stroke="#6bbf4b" stroke-opacity="0.16"/>
<rect class="circle-3" x="400.25" y="400.25" width="1183.5" height="1183.5" rx="591.75" fill="#6bbf4b" fill-opacity="0.09"/>
<rect class="circle-3" x="400.25" y="400.25" width="1183.5" height="1183.5" rx="591.75" stroke="#6bbf4b" stroke-width="0.5" stroke-opacity="0.20"/>
<rect class="circle-2" x="500.25" y="500.25" width="983.5" height="983.5" rx="491.75" fill="#6bbf4b" fill-opacity="0.12"/>
<rect class="circle-2" x="500.25" y="500.25" width="983.5" height="983.5" rx="491.75" stroke="#6bbf4b" stroke-width="0.5" stroke-opacity="0.25"/>
<rect class="circle-1" x="600.25" y="600.25" width="783.5" height="783.5" rx="391.75" fill="#6bbf4b" fill-opacity="0.15"/>
<rect class="circle-1" x="600.25" y="600.25" width="783.5" height="783.5" rx="391.75" stroke="#6bbf4b" stroke-width="0.5" stroke-opacity="0.30"/>
<rect class="circle-1" x="700.25" y="700.25" width="583.5" height="583.5" rx="291.75" fill="#6bbf4b" fill-opacity="0.18"/>
<rect class="circle-1" x="700.25" y="700.25" width="583.5" height="583.5" rx="291.75" stroke="#6bbf4b" stroke-width="0.5" stroke-opacity="0.35"/>
</svg>
